<svg width="210" height="43" viewBox="0 0 210 43" fill="none" xmlns="http://www.w3.org/2000/svg">
<path d="M13.3221 29.7925L12.6196 30.185L13.1196 29.56C16.3718 25.5589 18.1839 20.5804 18.2646 15.425L18.2771 14.62L18.5646 15.37C20.4078 20.1892 23.8193 24.2479 28.2496 26.8925L28.9396 27.305L28.1446 27.1775C23.0503 26.3605 17.8293 27.2816 13.3221 29.7925V29.7925Z" fill="#06478E"/>
<path d="M24.7152 24.2975C20.3552 18.1525 21.1027 14.65 22.3152 9.96999C23.7527 4.41999 20.3527 -1.08751 14.4002 0.544988C11.7627 1.26999 10.8302 3.06499 10.5002 4.32499C8.88519 10.4 18.4652 19.45 24.7152 24.2975Z" fill="#3B81DA"/>
<path d="M6.58018 29.0175C1.05518 30.5475 -2.01482 36.25 2.37518 40.585C4.32018 42.505 6.34018 42.415 7.59768 42.085C13.6652 40.4425 16.7127 27.62 17.7877 19.785C14.6452 26.6225 11.2502 27.7275 6.58018 29.0175Z" fill="#3B81DA"/>
<path d="M41.75 25.71C37.2925 21.2775 24.665 25.0475 17.3425 28.035C24.8425 27.3325 27.5025 29.73 30.95 33.12C35.0375 37.14 41.5075 36.9475 43.07 30.9775C43.75 28.3325 42.6625 26.6275 41.75 25.71Z" fill="#3B81DA"/>
<path d="M69.088 17.288C70.96 17.288 71.968 17.992 71.968 19.608C71.968 21.352 70.96 22.088 69.088 22.088H67.968V17.288H69.088ZM69.584 23.976C72.672 23.976 74.48 22.408 74.48 19.608C74.48 16.904 72.672 15.4 69.584 15.4H65.52V27H67.968V23.976H69.584Z" fill="white"/>
<path d="M75.9726 26.584C77.0126 26.936 78.4526 27.208 79.8926 27.208C82.9646 27.208 84.5486 25.848 84.5486 23.816C84.5486 22.04 83.5246 20.856 80.7566 20.168C79.0766 19.752 78.4686 19.272 78.4686 18.488C78.4686 17.736 79.1246 17.208 80.6606 17.208C81.7806 17.208 82.7566 17.464 83.5406 17.704L84.0366 15.784C83.0126 15.432 81.7006 15.192 80.5006 15.192C77.6206 15.192 75.9726 16.712 75.9726 18.664C75.9726 20.296 77.0126 21.496 79.5566 22.168C81.4126 22.648 81.9406 23.144 81.9406 23.912C81.9406 24.712 81.2526 25.192 79.5566 25.192C78.3726 25.192 77.2846 24.904 76.4526 24.632L75.9726 26.584Z" fill="white"/>
<path d="M90.4474 17.288C92.3194 17.288 93.3274 17.992 93.3274 19.608C93.3274 21.352 92.3194 22.088 90.4474 22.088H89.3274V17.288H90.4474ZM90.9434 23.976C94.0314 23.976 95.8394 22.408 95.8394 19.608C95.8394 16.904 94.0314 15.4 90.9434 15.4H86.8794V27H89.3274V23.976H90.9434Z" fill="white"/>
<path d="M101.924 17.32C104.228 17.32 105.524 18.312 105.524 21.176C105.524 24.088 104.212 25.08 101.924 25.08H100.468V17.32H101.924ZM98.02 27H102.42C105.956 27 108.052 24.984 108.052 21.176C108.052 17.384 105.956 15.4 102.42 15.4H98.02V27Z" fill="white"/>
<path d="M117.594 22.648V20.728H112.874V17.432H118.122V15.4H110.426V27H112.874V22.648H117.594Z" fill="white"/>
<path d="M127.259 27H130.251L125.419 21.256L130.027 15.4H127.195L122.827 21.112V15.4H120.379V27H122.827V21.48L127.259 27Z" fill="white"/>
<path d="M131.305 15.784C131.305 16.568 131.881 17.144 132.777 17.144C133.689 17.144 134.249 16.568 134.249 15.784C134.249 14.984 133.689 14.408 132.777 14.408C131.881 14.408 131.305 14.984 131.305 15.784ZM131.609 27H133.945V18.152H131.609V27Z" fill="white"/>
<path d="M142.354 26.76L141.986 25.096C141.602 25.208 140.978 25.336 140.498 25.336C139.602 25.336 139.202 25.048 139.202 24.056V19.944H142.034V18.152H139.202V16.264L136.85 16.648V18.152L135.554 18.328V19.944H136.85V24.424C136.85 26.392 138.034 27.208 139.746 27.208C140.706 27.208 141.65 27.016 142.354 26.76Z" fill="white"/>
<path d="M152.413 19.64V18.184H150.285V18.008C150.285 16.776 150.749 16.296 151.725 16.296C152.061 16.296 152.493 16.344 152.861 16.424L153.085 15.048C152.605 14.904 151.981 14.808 151.341 14.808C149.565 14.808 148.525 15.944 148.525 17.768V18.184L147.197 18.328V19.64H148.525V27H150.285V19.64H152.413Z" fill="white"/>
<path d="M153.644 22.552C153.644 25.336 155.34 27.192 157.98 27.192C160.604 27.192 162.3 25.336 162.3 22.552C162.3 19.816 160.604 17.992 157.98 17.992C155.34 17.992 153.644 19.816 153.644 22.552ZM155.436 22.552C155.436 20.632 156.38 19.496 157.98 19.496C159.564 19.496 160.508 20.632 160.508 22.552C160.508 24.552 159.564 25.672 157.98 25.672C156.38 25.672 155.436 24.552 155.436 22.552Z" fill="white"/>
<path d="M166.278 19.56C166.214 19.24 166.134 18.568 166.118 18.184H164.566V27H166.326V21.416C166.742 20.424 167.526 19.736 168.406 19.736C168.742 19.736 169.094 19.8 169.43 19.928L169.91 18.344C169.542 18.12 169.062 17.992 168.566 17.992C167.398 17.992 166.646 18.728 166.278 19.56Z" fill="white"/>
<path d="M184.65 27H186.506L190.026 15.4H188.122L185.626 24.632L183.098 15.4H181.386L178.89 24.664L176.362 15.4H174.41L177.914 27H179.77L182.218 18.264L184.65 27Z" fill="white"/>
<path d="M194.741 19.48C195.973 19.48 196.837 20.152 196.949 21.832H192.437C192.629 20.248 193.525 19.48 194.741 19.48ZM198.325 26.424L197.781 25.064C197.109 25.368 196.229 25.656 195.333 25.656C193.557 25.656 192.613 24.856 192.421 23.192H198.597C198.645 22.92 198.677 22.6 198.677 22.2C198.677 19.624 197.205 17.992 194.789 17.992C192.309 17.992 190.597 19.896 190.597 22.6C190.597 25.512 192.341 27.192 195.189 27.192C196.325 27.192 197.397 26.872 198.325 26.424Z" fill="white"/>
<path d="M202.654 19.272V15H200.894V26.664C201.902 26.92 203.294 27.192 204.334 27.192C207.646 27.192 209.07 25.56 209.07 22.52C209.07 19.432 207.806 17.992 205.694 17.992C204.222 17.992 203.214 18.696 202.654 19.272ZM202.654 20.744C203.326 20.088 204.142 19.592 205.15 19.592C206.526 19.592 207.278 20.488 207.278 22.52C207.278 24.632 206.43 25.8 204.35 25.8C203.774 25.8 203.15 25.688 202.654 25.528V20.744Z" fill="white"/>
</svg>
