<svg width="210" height="43" viewBox="0 0 210 43" fill="none" xmlns="http://www.w3.org/2000/svg">
<path d="M13.3221 29.7925L12.6196 30.185L13.1196 29.56C16.3718 25.5589 18.1839 20.5804 18.2646 15.425L18.2771 14.62L18.5646 15.37C20.4078 20.1892 23.8193 24.2479 28.2496 26.8925L28.9396 27.305L28.1446 27.1775C23.0503 26.3605 17.8293 27.2816 13.3221 29.7925V29.7925Z" fill="#06478E"/>
<path d="M24.7152 24.2975C20.3552 18.1525 21.1027 14.65 22.3152 9.96999C23.7527 4.41999 20.3527 -1.08751 14.4002 0.544988C11.7627 1.26999 10.8302 3.06499 10.5002 4.32499C8.88519 10.4 18.4652 19.45 24.7152 24.2975Z" fill="#3B81DA"/>
<path d="M6.58018 29.0175C1.05518 30.5475 -2.01482 36.25 2.37518 40.585C4.32018 42.505 6.34018 42.415 7.59768 42.085C13.6652 40.4425 16.7127 27.62 17.7877 19.785C14.6452 26.6225 11.2502 27.7275 6.58018 29.0175Z" fill="#3B81DA"/>
<path d="M41.7499 25.71C37.2924 21.2775 24.6649 25.0475 17.3424 28.035C24.8424 27.3325 27.5024 29.73 30.9499 33.12C35.0374 37.14 41.5074 36.9475 43.0699 30.9775C43.7499 28.3325 42.6624 26.6275 41.7499 25.71Z" fill="#3B81DA"/>
<path d="M69.088 17.288C70.96 17.288 71.968 17.992 71.968 19.608C71.968 21.352 70.96 22.088 69.088 22.088H67.968V17.288H69.088ZM69.584 23.976C72.672 23.976 74.48 22.408 74.48 19.608C74.48 16.904 72.672 15.4 69.584 15.4H65.52V27H67.968V23.976H69.584Z" fill="#33383E"/>
<path d="M75.9726 26.584C77.0126 26.936 78.4526 27.208 79.8926 27.208C82.9646 27.208 84.5486 25.848 84.5486 23.816C84.5486 22.04 83.5246 20.856 80.7566 20.168C79.0766 19.752 78.4686 19.272 78.4686 18.488C78.4686 17.736 79.1246 17.208 80.6606 17.208C81.7806 17.208 82.7566 17.464 83.5406 17.704L84.0366 15.784C83.0126 15.432 81.7006 15.192 80.5006 15.192C77.6206 15.192 75.9726 16.712 75.9726 18.664C75.9726 20.296 77.0126 21.496 79.5566 22.168C81.4126 22.648 81.9406 23.144 81.9406 23.912C81.9406 24.712 81.2526 25.192 79.5566 25.192C78.3726 25.192 77.2846 24.904 76.4526 24.632L75.9726 26.584Z" fill="#33383E"/>
<path d="M90.4474 17.288C92.3194 17.288 93.3274 17.992 93.3274 19.608C93.3274 21.352 92.3194 22.088 90.4474 22.088H89.3274V17.288H90.4474ZM90.9434 23.976C94.0314 23.976 95.8394 22.408 95.8394 19.608C95.8394 16.904 94.0314 15.4 90.9434 15.4H86.8794V27H89.3274V23.976H90.9434Z" fill="#33383E"/>
<path d="M101.924 17.32C104.228 17.32 105.524 18.312 105.524 21.176C105.524 24.088 104.212 25.08 101.924 25.08H100.468V17.32H101.924ZM98.02 27H102.42C105.956 27 108.052 24.984 108.052 21.176C108.052 17.384 105.956 15.4 102.42 15.4H98.02V27Z" fill="#33383E"/>
<path d="M117.594 22.648V20.728H112.874V17.432H118.122V15.4H110.426V27H112.874V22.648H117.594Z" fill="#33383E"/>
<path d="M127.259 27H130.251L125.419 21.256L130.027 15.4H127.195L122.827 21.112V15.4H120.379V27H122.827V21.48L127.259 27Z" fill="#33383E"/>
<path d="M131.305 15.784C131.305 16.568 131.881 17.144 132.777 17.144C133.689 17.144 134.249 16.568 134.249 15.784C134.249 14.984 133.689 14.408 132.777 14.408C131.881 14.408 131.305 14.984 131.305 15.784ZM131.609 27H133.945V18.152H131.609V27Z" fill="#33383E"/>
<path d="M142.354 26.76L141.986 25.096C141.602 25.208 140.978 25.336 140.498 25.336C139.602 25.336 139.202 25.048 139.202 24.056V19.944H142.034V18.152H139.202V16.264L136.85 16.648V18.152L135.554 18.328V19.944H136.85V24.424C136.85 26.392 138.034 27.208 139.746 27.208C140.706 27.208 141.65 27.016 142.354 26.76Z" fill="#33383E"/>
<path d="M152.413 19.64H150.285V27H148.525V19.64H147.197V18.328L148.525 18.184V17.768C148.525 16.8614 148.771 16.1414 149.261 15.608C149.763 15.0747 150.456 14.808 151.341 14.808C151.661 14.808 151.971 14.8294 152.269 14.872C152.579 14.9147 152.851 14.9734 153.085 15.048L152.861 16.424C152.68 16.3814 152.488 16.3494 152.285 16.328C152.083 16.3067 151.896 16.296 151.725 16.296C151.235 16.296 150.872 16.4294 150.637 16.696C150.403 16.9627 150.285 17.4 150.285 18.008V18.184H152.413V19.64Z" fill="#33383E"/>
<path d="M153.644 22.552C153.644 21.1867 154.038 20.088 154.828 19.256C155.617 18.4134 156.668 17.992 157.98 17.992C159.281 17.992 160.326 18.4134 161.116 19.256C161.905 20.088 162.3 21.1867 162.3 22.552C162.3 23.9387 161.905 25.0587 161.116 25.912C160.326 26.7654 159.281 27.192 157.98 27.192C156.668 27.192 155.617 26.7654 154.828 25.912C154.038 25.0587 153.644 23.9387 153.644 22.552ZM155.436 22.552C155.436 23.544 155.66 24.312 156.108 24.856C156.556 25.4 157.18 25.672 157.98 25.672C158.769 25.672 159.388 25.4 159.836 24.856C160.284 24.312 160.508 23.544 160.508 22.552C160.508 21.592 160.284 20.8454 159.836 20.312C159.388 19.768 158.769 19.496 157.98 19.496C157.18 19.496 156.556 19.768 156.108 20.312C155.66 20.8454 155.436 21.592 155.436 22.552Z" fill="#33383E"/>
<path d="M166.278 19.56C166.459 19.144 166.742 18.7814 167.126 18.472C167.51 18.152 167.99 17.992 168.566 17.992C168.811 17.992 169.051 18.024 169.286 18.088C169.52 18.152 169.728 18.2374 169.91 18.344L169.43 19.928C169.259 19.864 169.088 19.816 168.918 19.784C168.747 19.752 168.576 19.736 168.406 19.736C167.968 19.736 167.563 19.896 167.19 20.216C166.816 20.5254 166.528 20.9254 166.326 21.416V27H164.566V18.184H166.118C166.128 18.376 166.15 18.616 166.182 18.904C166.214 19.1814 166.246 19.4 166.278 19.56Z" fill="#33383E"/>
<path d="M184.65 27L182.218 18.264L179.77 27H177.914L174.41 15.4H176.362L178.89 24.664L181.386 15.4H183.098L185.626 24.632L188.122 15.4H190.026L186.506 27H184.65Z" fill="#33383E"/>
<path d="M194.741 19.48C194.133 19.48 193.621 19.6774 193.205 20.072C192.789 20.456 192.533 21.0427 192.437 21.832H196.949C196.896 21 196.666 20.4027 196.261 20.04C195.856 19.6667 195.349 19.48 194.741 19.48ZM198.325 26.424C197.866 26.648 197.37 26.8347 196.837 26.984C196.304 27.1227 195.754 27.192 195.189 27.192C193.77 27.192 192.65 26.792 191.829 25.992C191.008 25.1814 190.597 24.0507 190.597 22.6C190.597 21.256 190.986 20.152 191.765 19.288C192.544 18.424 193.552 17.992 194.789 17.992C195.994 17.992 196.944 18.376 197.637 19.144C198.33 19.9014 198.677 20.92 198.677 22.2C198.677 22.4027 198.666 22.584 198.645 22.744C198.634 22.904 198.618 23.0534 198.597 23.192H192.421C192.517 24.024 192.805 24.6427 193.285 25.048C193.765 25.4534 194.448 25.656 195.333 25.656C195.781 25.656 196.218 25.5974 196.645 25.48C197.072 25.352 197.45 25.2134 197.781 25.064L198.325 26.424Z" fill="#33383E"/>
<path d="M202.654 19.272C202.931 18.984 203.321 18.7014 203.822 18.424C204.334 18.136 204.958 17.992 205.694 17.992C206.75 17.992 207.577 18.3654 208.174 19.112C208.771 19.848 209.07 20.984 209.07 22.52C209.07 24.0347 208.691 25.192 207.934 25.992C207.177 26.792 205.977 27.192 204.334 27.192C203.811 27.192 203.23 27.1334 202.59 27.016C201.961 26.9094 201.395 26.792 200.894 26.664V15H202.654V19.272ZM202.654 20.744V25.528C202.899 25.6027 203.171 25.6667 203.47 25.72C203.769 25.7734 204.062 25.8 204.35 25.8C205.385 25.8 206.131 25.5174 206.59 24.952C207.049 24.3867 207.278 23.576 207.278 22.52C207.278 21.5067 207.091 20.7654 206.718 20.296C206.355 19.8267 205.833 19.592 205.15 19.592C204.649 19.592 204.19 19.704 203.774 19.928C203.358 20.1414 202.985 20.4134 202.654 20.744Z" fill="#33383E"/>
</svg>
